<?xml version="1.0" standalone="no"?>
<!DOCTYPE svg PUBLIC "-//W3C//DTD SVG 20010904//EN"
 "http://www.w3.org/TR/2001/REC-SVG-20010904/DTD/svg10.dtd">
<svg version="1.0" xmlns="http://www.w3.org/2000/svg"
 width="95.000000pt" height="95.000000pt" viewBox="0 0 95.000000 95.000000"
 preserveAspectRatio="xMidYMid meet">
<metadata>
Created by potrace 1.16, written by Peter Selinger 2001-2019
</metadata>
<g transform="translate(0.000000,95.000000) scale(0.100000,-0.100000)"
fill="#000000" stroke="none">
<path d="M420 818 l0 -133 -67 117 -67 117 -48 -26 c-26 -14 -48 -30 -48 -34
0 -4 23 -47 51 -96 28 -48 55 -96 61 -106 11 -22 16 -24 -115 52 -49 28 -92
51 -96 51 -4 0 -20 -22 -34 -48 l-26 -48 117 -67 117 -67 -132 0 -133 0 0 -55
0 -54 128 -3 127 -3 -113 -63 -112 -64 27 -49 c16 -27 30 -49 33 -49 3 0 52
27 109 60 57 33 105 59 107 57 2 -1 -24 -47 -56 -102 -33 -55 -59 -105 -60
-110 0 -6 21 -22 46 -35 54 -30 46 -36 127 108 l52 92 3 -130 3 -130 54 0 54
0 3 128 3 127 59 -103 c32 -56 63 -105 68 -108 10 -7 98 36 98 48 0 4 -29 56
-64 117 l-64 109 109 -64 c61 -35 113 -64 117 -64 12 0 55 88 48 98 -3 5 -52
36 -108 68 l-103 59 128 3 127 3 0 54 0 55 -132 0 -133 0 105 61 c58 33 109
65 115 70 10 10 -33 99 -48 99 -4 0 -54 -27 -110 -60 -55 -32 -103 -58 -104
-56 -2 1 24 50 57 107 33 57 60 106 60 109 0 3 -22 17 -49 33 l-49 27 -64
-112 -63 -113 -3 128 -3 127 -54 0 -55 0 0 -132z m133 -230 c108 -76 54 -248
-78 -248 -80 0 -135 59 -135 143 0 106 123 167 213 105z"/>
</g>
</svg>
